# xmcd CD database file
#
# Track frame offsets:
#	150
#	17307
#	38808
#	61044
#	88645
#	112093
#	140627
#	163589
#	182874
#	201770
#	216395
#	248712
#	271357
#	293038
#	312356
#	334416
#
# Disc length: 4674 seconds
#
# Revision: 1
# Processed by: cddbd v1.5PL3 Copyright (c) Steve Scherf et al.
# Submitted via: CDex 1.51
#
DISCID=ed124010
DTITLE=Scorpions - Music Heritage
DYEAR=2002
DGENRE=Ballad
TTITLE0=When the smoke is going down
TTITLE1=Beileve in love
TTITLE2=Always somewhere
TTITLE3=Still loving you
TTITLE4=wind of change
TTITLE5=Holliday
TTITLE6=Eye to eye
TTITLE7=Lady starlight
TTITLE8=Obsession
TTITLE9=Destiny
TTITLE10=Born to touch your feelings
TTITLE11=What you give you get back
TTITLE12=Lonely nights
TTITLE13=Daddy's girl
TTITLE14=Under the same sun
TTITLE15=A moment in a milion years
EXTD=YEAR: 2002
EXTT0=
EXTT1=
EXTT2=
EXTT3=
EXTT4=
EXTT5=
EXTT6=
EXTT7=
EXTT8=
EXTT9=
EXTT10=
EXTT11=
EXTT12=
EXTT13=
EXTT14=
EXTT15=
PLAYORDER=
